<svg width="36" height="36" viewBox="0 0 36 36" fill="none" xmlns="http://www.w3.org/2000/svg">
<path fill-rule="evenodd" clip-rule="evenodd" d="M18 3C9.7155 3 3 9.7155 3 18C3 26.2845 9.7155 33 18 33C26.2845 33 33 26.2845 33 18C33 9.7155 26.2845 3 18 3ZM12.75 14.25C12.75 13.5606 12.8858 12.8779 13.1496 12.2409C13.4135 11.604 13.8002 11.0252 14.2877 10.5377C14.7752 10.0502 15.354 9.66347 15.9909 9.39963C16.6279 9.1358 17.3106 9 18 9C18.6894 9 19.3721 9.1358 20.0091 9.39963C20.646 9.66347 21.2248 10.0502 21.7123 10.5377C22.1998 11.0252 22.5865 11.604 22.8504 12.2409C23.1142 12.8779 23.25 13.5606 23.25 14.25C23.25 15.6424 22.6969 16.9777 21.7123 17.9623C20.7277 18.9469 19.3924 19.5 18 19.5C16.6076 19.5 15.2723 18.9469 14.2877 17.9623C13.3031 16.9777 12.75 15.6424 12.75 14.25ZM27.387 25.476C26.2642 26.8884 24.8367 28.0289 23.2113 28.8123C21.5858 29.5957 19.8044 30.0017 18 30C16.1956 30.0017 14.4142 29.5957 12.7887 28.8123C11.1633 28.0289 9.73585 26.8884 8.613 25.476C11.0445 23.7315 14.3625 22.5 18 22.5C21.6375 22.5 24.9555 23.7315 27.387 25.476Z" fill="black"/>
</svg>
