<svg width="712" height="46" viewBox="0 0 712 46" fill="none" xmlns="http://www.w3.org/2000/svg">
<g clip-path="url(#clip0_18_564)">
<path d="M130.207 8.84042L128.348 10.6988C127.374 9.64711 126.175 8.82817 124.764 8.18719L124.755 8.18323L124.746 8.1796C123.157 7.5297 121.489 7.16666 119.675 7.16666C117.432 7.16666 115.395 7.67469 113.435 8.76285C111.47 9.85396 109.942 11.3826 108.784 13.3359C107.616 15.3057 107.04 17.6267 107.04 20.1424C107.04 22.7292 107.617 24.9802 108.784 26.949C109.946 28.9082 111.544 30.4317 113.428 31.518L113.428 31.5181L113.435 31.522C115.396 32.6108 117.503 33.1182 119.675 33.1182C121.753 33.1182 123.569 32.7605 125.041 32.0984C126.492 31.4459 127.731 30.5733 128.822 29.4115C129.65 28.5821 130.237 27.5433 130.736 26.3318C131.255 25.1448 131.47 23.8289 131.61 22.4948L131.668 21.9424H131.113H120.315V19.597H134.106C134.195 20.1963 134.239 20.7855 134.239 21.3273C134.239 23.1576 133.968 24.914 133.36 26.6697C132.754 28.4195 131.885 29.8852 130.62 31.1494L130.614 31.1556L130.608 31.162C127.853 34.1159 124.226 35.603 119.745 35.603H119.721L119.698 35.6053C116.884 35.8731 114.336 35.2063 111.973 33.8567C109.609 32.507 107.721 30.6197 106.37 28.2579C105.022 25.8991 104.344 23.2674 104.344 20.3515C104.344 17.4399 105.02 14.8759 106.372 12.4425C107.722 10.0819 109.61 8.19549 111.973 6.84631L111.732 6.42385L111.973 6.84631C114.337 5.49627 116.901 4.82121 119.675 4.82121C121.845 4.82121 123.945 5.22788 125.839 5.97148C127.556 6.64552 129.046 7.65413 130.207 8.84042Z" fill="#656C73" stroke="#3F3F3F"/>
<path d="M154.988 20.7447L154.982 20.7348L154.977 20.7252C154.253 19.4954 153.36 18.4404 152.141 17.7551C150.958 17.09 149.688 16.7152 148.269 16.7152C146.917 16.7152 145.648 17.0914 144.467 17.7551C143.262 18.4328 142.293 19.4796 141.626 20.7349C140.872 22.0204 140.586 23.5775 140.586 25.1606C140.586 26.838 140.951 28.3134 141.62 29.5765L141.626 29.5864L141.631 29.5961C142.355 30.8258 143.248 31.8808 144.467 32.5662C145.648 33.2298 146.917 33.6061 148.269 33.6061C149.688 33.6061 150.958 33.2312 152.141 32.5662C153.346 31.8884 154.315 30.8416 154.982 29.5863C155.736 28.3008 156.022 26.7437 156.022 25.1606C156.022 23.4832 155.657 22.0078 154.988 20.7447ZM142.942 34.4862C141.361 33.5646 140.164 32.2441 139.222 30.6342C138.356 28.9655 137.89 27.1661 137.89 25.0909C137.89 23.0796 138.359 21.2073 139.228 19.5369C140.087 17.885 141.343 16.6277 142.942 15.6956C144.534 14.7672 146.329 14.3 148.269 14.3C150.28 14.3 152.075 14.7679 153.666 15.6956C155.258 16.6232 156.518 17.9478 157.382 19.5406C158.251 21.2113 158.718 23.0129 158.718 25.0909C158.718 27.1023 158.249 28.9745 157.38 30.645C156.521 32.2968 155.265 33.5541 153.666 34.4862C152.075 35.4139 150.28 35.8818 148.269 35.8818C146.329 35.8818 144.534 35.4146 142.942 34.4862Z" fill="#656C73" stroke="#3F3F3F"/>
<path d="M179.257 20.7447L179.252 20.7348L179.247 20.7252C178.523 19.4954 177.63 18.4404 176.411 17.7551C175.228 17.09 173.958 16.7152 172.539 16.7152C171.187 16.7152 169.918 17.0914 168.737 17.7551C167.532 18.4328 166.563 19.4796 165.895 20.7349C165.142 22.0204 164.856 23.5775 164.856 25.1606C164.856 26.838 165.221 28.3134 165.89 29.5765L165.895 29.5864L165.901 29.5961C166.625 30.8258 167.518 31.8808 168.737 32.5662C169.918 33.2298 171.187 33.6061 172.539 33.6061C173.958 33.6061 175.228 33.2312 176.411 32.5662C177.616 31.8884 178.585 30.8416 179.252 29.5863C180.006 28.3008 180.292 26.7437 180.292 25.1606C180.292 23.4832 179.927 22.0078 179.257 20.7447ZM167.212 34.4862C165.631 33.5646 164.434 32.2441 163.492 30.6342C162.626 28.9655 162.159 27.1661 162.159 25.0909C162.159 23.0796 162.629 21.2073 163.498 19.5369C164.357 17.885 165.613 16.6277 167.212 15.6956C168.804 14.7672 170.599 14.3 172.539 14.3C174.55 14.3 176.345 14.7679 177.936 15.6956C179.527 16.6232 180.788 17.9478 181.652 19.5406C182.52 21.2113 182.988 23.0129 182.988 25.0909C182.988 27.1023 182.519 28.9745 181.65 30.645C180.79 32.2968 179.535 33.5541 177.936 34.4862C176.345 35.4139 174.55 35.8818 172.539 35.8818C170.599 35.8818 168.804 35.4146 167.212 34.4862Z" fill="#656C73" stroke="#3F3F3F"/>
<path d="M187.617 39.7924L190.038 38.7846C190.517 39.919 191.286 40.8778 192.341 41.603C193.54 42.4269 194.894 42.8758 196.53 42.8758C198.859 42.8758 200.749 42.2177 202.123 40.7682L202.128 40.7631L202.133 40.7578C203.42 39.3202 204.074 37.3784 204.074 34.9182V32.6182V32.1182H203.574H203.434H203.157L203.01 32.3531C202.369 33.3778 201.465 34.1634 200.253 34.9042C199.086 35.5503 197.71 35.8818 196.111 35.8818C194.393 35.8818 192.813 35.4212 191.358 34.4963C189.896 33.5665 188.702 32.3075 187.837 30.645C186.967 28.9732 186.499 27.1705 186.499 25.0909C186.499 23.0113 186.967 21.2086 187.837 19.5369C188.702 17.8743 189.896 16.6153 191.358 15.6855C192.813 14.7606 194.393 14.3 196.111 14.3C197.638 14.3 199.02 14.6306 200.267 15.2854C201.468 15.9527 202.431 16.7998 202.998 17.8089L203.142 18.0636H203.434H203.574H204.074V17.5636V14.997H206.561V34.8485C206.561 37.1482 206.087 39.0117 205.231 40.5266C204.367 42.053 203.184 43.2292 201.684 43.9459C200.148 44.68 198.479 45.0818 196.53 45.0818V45.0816L196.516 45.082C194.026 45.1493 192.055 44.5443 190.561 43.3759C189.163 42.2826 188.178 41.1029 187.617 39.7924ZM203.104 29.5854L203.104 29.5854L203.109 29.5765C203.78 28.3103 204.143 26.7644 204.143 25.0909C204.143 23.4175 203.78 21.8716 203.109 20.6053C202.45 19.3611 201.554 18.3049 200.338 17.6191C199.219 16.9497 197.947 16.5758 196.6 16.5758C195.249 16.5758 193.976 16.951 192.855 17.6227C191.714 18.3072 190.824 19.3573 190.101 20.5858L190.096 20.5954L190.09 20.6053C189.42 21.8715 189.056 23.4174 189.056 25.0909C189.056 26.7644 189.42 28.3103 190.09 29.5765C190.749 30.8207 191.645 31.8769 192.861 32.5627C193.98 33.2321 195.252 33.6061 196.6 33.6061C197.95 33.6061 199.224 33.2308 200.344 32.5591C201.478 31.8791 202.372 30.9024 203.104 29.5854Z" fill="#656C73" stroke="#3F3F3F"/>
<path d="M212.443 35.1849V5.58788H215.069V35.1849H212.443Z" fill="#656C73" stroke="#3F3F3F"/>
<path d="M223.38 30.0349C224.118 31.211 225.087 32.1137 226.225 32.6475C227.34 33.2395 228.533 33.5364 229.796 33.5364C232.508 33.5364 234.67 32.2336 236.199 29.7813L238.518 30.8894C237.678 32.3291 236.566 33.4512 235.172 34.3599C233.668 35.3405 231.816 35.8121 229.657 35.8121H229.648L229.64 35.8124C227.716 35.8787 225.997 35.417 224.403 34.4886C222.879 33.5605 221.688 32.3048 220.825 30.645C219.955 28.9732 219.486 27.1705 219.486 25.0909C219.486 23.1367 219.891 21.2635 220.689 19.6692L220.689 19.6692L220.692 19.6619C221.484 18.0133 222.673 16.7536 224.146 15.7494C225.658 14.7651 227.372 14.3 229.308 14.3C231.245 14.3 232.972 14.7658 234.498 15.6269C235.939 16.4792 237.06 17.7268 237.857 19.3207C238.654 20.9129 239.06 22.7854 239.06 24.8818C239.06 25.0145 239.06 25.1249 239.058 25.2182H222.613H222.091L222.113 25.7399C222.186 27.3993 222.548 28.821 223.38 30.0349ZM235.794 23.2212H236.337L236.292 22.6797C236.218 21.7934 235.996 20.823 235.544 19.9187C235.082 18.9952 234.318 18.1589 233.264 17.5541C232.185 16.8648 230.9 16.5758 229.378 16.5758C227.662 16.5758 226.147 17.1017 224.863 18.2341C223.581 19.3646 222.837 20.794 222.471 22.6231L222.352 23.2212H222.962H235.794Z" fill="#656C73" stroke="#3F3F3F"/>
<path d="M262.853 35.2545H254.078V5.58788H262.853C265.923 5.58788 268.556 6.20079 270.839 7.47593L271.08 7.04527L270.839 7.47593C273.13 8.75542 274.803 10.4293 276.011 12.7098L276.011 12.7098L276.014 12.7153C277.224 14.9318 277.836 17.4958 277.836 20.4212C277.836 23.3466 277.224 25.9106 276.014 28.1271C274.805 30.3414 273.061 32.0876 270.836 33.3681C268.554 34.6421 265.922 35.2545 262.853 35.2545ZM257.204 8.07273H256.704V8.57273V32.2697V32.7697H257.204H262.853C266.581 32.7697 269.579 31.6919 271.785 29.487C273.994 27.2794 275.07 24.2114 275.07 20.4212C275.07 16.5598 273.993 13.5622 271.785 11.3554C269.579 9.15048 266.581 8.07273 262.853 8.07273H257.204Z" fill="#656C73" stroke="#3F3F3F"/>
<path d="M283.107 19.6692L283.107 19.6692L283.111 19.6619C283.902 18.0133 285.091 16.7536 286.564 15.7494C288.076 14.7651 289.79 14.3 291.726 14.3C293.663 14.3 295.39 14.7658 296.916 15.6269C298.357 16.4792 299.478 17.7268 300.276 19.3207C301.072 20.9129 301.478 22.7854 301.478 24.8818C301.478 25.0145 301.478 25.1249 301.476 25.2182H285.031H284.509L284.532 25.7399C284.604 27.3993 284.966 28.821 285.798 30.0349C286.536 31.211 287.506 32.1137 288.643 32.6475C289.758 33.2395 290.951 33.5364 292.214 33.5364C294.926 33.5364 297.088 32.2336 298.617 29.7813L300.936 30.8894C300.096 32.3291 298.985 33.4512 297.59 34.3599C296.086 35.3405 294.234 35.8121 292.075 35.8121H292.067L292.058 35.8124C290.06 35.879 288.343 35.4144 286.825 34.491C285.299 33.5627 284.107 32.3063 283.243 30.645C282.373 28.9732 281.905 27.1705 281.905 25.0909C281.905 23.1367 282.309 21.2635 283.107 19.6692ZM298.212 23.2212H298.755L298.71 22.6797C298.636 21.7934 298.414 20.823 297.962 19.9187C297.5 18.9952 296.736 18.1589 295.682 17.5541C294.603 16.8648 293.318 16.5758 291.796 16.5758C290.08 16.5758 288.565 17.1017 287.281 18.2341C285.999 19.3646 285.256 20.794 284.889 22.6231L284.77 23.2212H285.38H298.212Z" fill="#656C73" stroke="#3F3F3F"/>
<path d="M313.881 31.6155L320.382 14.997H323.13L314.824 35.1848H311.8L303.627 14.997H306.516L312.879 31.6121L313.002 31.9333H313.346H313.416H313.757L313.881 31.6155Z" fill="#656C73" stroke="#3F3F3F"/>
<path d="M327.044 19.6692L327.044 19.6692L327.047 19.6619C327.839 18.0133 329.028 16.7536 330.5 15.7494C332.013 14.7651 333.727 14.3 335.663 14.3C337.6 14.3 339.327 14.7658 340.853 15.6269C342.294 16.4792 343.415 17.7268 344.212 19.3207C345.009 20.9129 345.415 22.7854 345.415 24.8818C345.415 25.0145 345.415 25.1249 345.413 25.2182H328.968H328.446L328.468 25.7399C328.54 27.3993 328.903 28.821 329.735 30.0349C330.473 31.211 331.442 32.1137 332.58 32.6475C333.695 33.2395 334.888 33.5364 336.151 33.5364C338.863 33.5364 341.025 32.2336 342.554 29.7813L344.873 30.8894C344.033 32.3291 342.921 33.4512 341.527 34.3599C340.023 35.3405 338.171 35.8121 336.012 35.8121H336.003L335.994 35.8124C334.065 35.8789 332.279 35.4137 330.762 34.491C329.236 33.5627 328.044 32.3063 327.18 30.645C326.31 28.9732 325.841 27.1705 325.841 25.0909C325.841 23.1367 326.246 21.2635 327.044 19.6692ZM342.149 23.2212H342.692L342.647 22.6797C342.573 21.7934 342.351 20.823 341.899 19.9187C341.437 18.9952 340.673 18.1589 339.618 17.5541C338.54 16.8648 337.255 16.5758 335.733 16.5758C334.017 16.5758 332.502 17.1017 331.218 18.2341C329.935 19.3646 329.192 20.794 328.826 22.6231L328.707 23.2212H329.317H342.149Z" fill="#656C73" stroke="#3F3F3F"/>
<path d="M350.181 35.1849V5.58788H352.807V35.1849H350.181Z" fill="#656C73" stroke="#3F3F3F"/>
<path d="M374.323 20.7447L374.317 20.7348L374.312 20.7252C373.588 19.4954 372.695 18.4404 371.476 17.7551C370.293 17.09 369.024 16.7152 367.604 16.7152C366.252 16.7152 364.983 17.0914 363.802 17.7551C362.597 18.4328 361.628 19.4796 360.961 20.7349C360.207 22.0204 359.921 23.5775 359.921 25.1606C359.921 26.838 360.286 28.3134 360.955 29.5765L360.961 29.5864L360.966 29.5961C361.69 30.8258 362.583 31.8808 363.802 32.5662C364.983 33.2298 366.252 33.6061 367.604 33.6061C369.024 33.6061 370.293 33.2312 371.476 32.5662C372.681 31.8884 373.65 30.8416 374.318 29.5863C375.071 28.3008 375.357 26.7437 375.357 25.1606C375.357 23.4832 374.992 22.0078 374.323 20.7447ZM362.277 34.4862C360.696 33.5646 359.499 32.2441 358.557 30.6342C357.691 28.9655 357.225 27.1661 357.225 25.0909C357.225 23.0796 357.694 21.2073 358.563 19.5369C359.423 17.885 360.678 16.6277 362.277 15.6956C363.871 14.7664 365.596 14.3 367.604 14.3C369.615 14.3 371.41 14.7679 373.001 15.6956C374.593 16.6232 375.853 17.9478 376.717 19.5406C377.586 21.2113 378.054 23.0129 378.054 25.0909C378.054 27.1023 377.584 28.9745 376.715 30.645C375.856 32.2968 374.6 33.5541 373.001 34.4862C371.41 35.4139 369.615 35.8818 367.604 35.8818C365.596 35.8818 363.871 35.4154 362.277 34.4862Z" fill="#656C73" stroke="#3F3F3F"/>
<path d="M384.958 35.418V44.3849H382.331V14.997H384.818V17.6333V18.1333H385.318H385.458H385.735L385.882 17.8985C386.53 16.8615 387.441 16.0121 388.63 15.3523C389.809 14.6976 391.259 14.3 392.85 14.3C394.568 14.3 396.149 14.7606 397.603 15.6855C399.065 16.6153 400.259 17.8743 401.125 19.5369C401.994 21.2086 402.463 23.0113 402.463 25.0909C402.463 27.1705 401.994 28.9732 401.125 30.645C400.259 32.3075 399.065 33.5665 397.603 34.4963C396.149 35.4212 394.568 35.8818 392.85 35.8818C391.243 35.8818 389.805 35.5469 388.648 34.84L388.634 34.8316L388.62 34.8241C387.377 34.1706 386.473 33.2622 385.894 32.2335L385.75 31.9788H385.458H385.318H384.794L384.819 32.5026L384.958 35.418ZM396.094 32.5662L396.094 32.5663L396.106 32.5591C397.237 31.8809 398.205 30.8346 398.872 29.5765C399.541 28.3118 399.906 26.7664 399.906 25.1606C399.906 23.4832 399.541 22.0078 398.872 20.7447C398.212 19.5005 397.317 18.4443 396.1 17.7585C394.982 17.0891 393.71 16.7152 392.362 16.7152C391.012 16.7152 389.738 17.0904 388.618 17.7621C387.497 18.434 386.523 19.4073 385.85 20.7499C385.181 22.0151 384.818 23.5591 384.818 25.2303C384.818 26.91 385.185 28.3807 385.848 29.7055C386.514 31.0377 387.415 32.0211 388.624 32.7021C389.743 33.3715 391.015 33.7455 392.362 33.7455C393.75 33.7455 394.958 33.2048 396.094 32.5662Z" fill="#656C73" stroke="#3F3F3F"/>
<path d="M408.013 19.6692L408.013 19.6692L408.017 19.6619C408.808 18.0132 409.997 16.7536 411.47 15.7494C412.982 14.7651 414.696 14.3 416.632 14.3C418.569 14.3 420.296 14.7658 421.822 15.6269C423.263 16.4792 424.384 17.7268 425.182 19.3207C425.978 20.9129 426.384 22.7854 426.384 24.8818C426.384 25.0145 426.384 25.1249 426.382 25.2182H409.937H409.415L409.437 25.7399C409.51 27.3993 409.872 28.821 410.704 30.035C411.442 31.211 412.412 32.1137 413.549 32.6475C414.664 33.2395 415.857 33.5364 417.12 33.5364C419.832 33.5364 421.994 32.2336 423.523 29.7813L425.842 30.8894C425.002 32.3291 423.891 33.4512 422.496 34.3599C420.992 35.3405 419.14 35.8121 416.981 35.8121H416.972L416.964 35.8124C415.034 35.8789 413.248 35.4137 411.731 34.491C410.205 33.5627 409.013 32.3063 408.149 30.645C407.279 28.9732 406.81 27.1705 406.81 25.0909C406.81 23.1367 407.215 21.2635 408.013 19.6692ZM423.118 23.2212H423.661L423.616 22.6797C423.542 21.7934 423.32 20.823 422.868 19.9187C422.406 18.9952 421.642 18.1589 420.588 17.5541C419.509 16.8648 418.224 16.5758 416.702 16.5758C414.992 16.5758 413.471 17.0986 412.251 18.2391C410.972 19.3688 410.231 20.7967 409.865 22.6231L409.745 23.2212H410.355H423.118Z" fill="#656C73" stroke="#3F3F3F"/>
<path d="M433.777 24.0454V35.3939H431.15V14.997H433.637V17.9818V18.4818H434.137H434.277H434.63L434.748 18.1483C435.127 17.0765 435.817 16.1906 436.978 15.4813C438.18 14.7475 439.345 14.3697 440.414 14.3697C441.138 14.3697 441.807 14.4639 442.424 14.6488V17.4271C441.711 17.18 440.883 17.0636 439.926 17.0636C438.857 17.0636 437.777 17.3681 436.847 18.0613C435.932 18.6741 435.191 19.5748 434.61 20.5912L434.603 20.6033L434.597 20.6157C434.077 21.6551 433.777 22.7767 433.777 24.0454Z" fill="#656C73" stroke="#3F3F3F"/>
<path d="M459.04 34.9546L459.031 34.9503L459.022 34.9464C457.638 34.3538 456.439 33.427 455.359 32.2806C454.39 31.1902 453.694 29.9303 453.224 28.3845L455.782 27.3618C456.32 29.0244 457.221 30.4562 458.498 31.5323C459.916 32.7986 461.569 33.397 463.428 33.397C465.341 33.397 466.917 32.8787 468.268 31.8281C469.659 30.7469 470.275 29.339 470.275 27.5303C470.275 26.0027 469.732 24.6838 468.581 23.6101L468.575 23.6038L468.568 23.5978C467.455 22.6336 465.715 21.7018 463.31 20.9235L461.365 20.2291L461.364 20.2287C459.258 19.4821 457.573 18.4687 456.231 17.2616C454.97 16.1274 454.374 14.5378 454.374 12.4061C454.374 11.0453 454.761 9.81023 455.486 8.62448C456.197 7.46112 457.239 6.54265 458.639 5.80964L458.639 5.80974L458.648 5.80484C459.955 5.0865 461.472 4.7515 463.149 4.7515C464.828 4.7515 466.358 5.0873 467.608 5.67919C468.866 6.27476 469.853 7.06488 470.573 7.9132C471.195 8.70481 471.654 9.42366 471.936 10.1137L469.506 11.1764C469.104 10.1953 468.474 9.36914 467.589 8.61117C466.498 7.67627 465.045 7.23636 463.289 7.23636C461.663 7.23636 460.15 7.68081 458.929 8.67245C457.707 9.66418 457.07 10.9171 457.07 12.4061C457.07 13.7489 457.632 14.8607 458.642 15.7151C459.622 16.5437 461.158 17.2643 463.056 17.8969L465.004 18.5921L465.006 18.593C467.538 19.4818 469.488 20.6329 470.886 22.0294L470.886 22.0295L470.895 22.0379C472.242 23.3206 472.971 25.1315 472.971 27.4606C472.971 29.3278 472.505 30.883 471.544 32.0991C470.548 33.3607 469.361 34.2812 467.912 34.8735C466.431 35.4788 464.891 35.8121 463.289 35.8121H463.277L463.266 35.8126C461.812 35.8787 460.429 35.6157 459.04 34.9546Z" fill="#656C73" stroke="#3F3F3F"/>
<path d="M478.771 17.2727H475.505V14.997H478.771H479.271V14.497V8.65454H481.898V14.497V14.997H482.398H487.128V17.2727H482.398H481.898V17.7727V29.3424C481.898 30.6177 482.103 31.6782 482.709 32.3789C483.31 33.1424 484.232 33.5364 485.327 33.5364C485.981 33.5364 486.585 33.4357 487.128 33.2263V35.5189C486.787 35.6194 486.507 35.7015 486.221 35.7492C485.822 35.8157 485.293 35.8818 484.629 35.8818C483.849 35.8818 483.146 35.752 482.514 35.4994C481.885 35.248 481.309 34.8681 480.787 34.4134C480.282 33.9064 479.91 33.3437 479.66 32.6563C479.404 31.954 479.271 31.1771 479.271 30.1788V17.7727V17.2727H478.771Z" fill="#656C73" stroke="#3F3F3F"/>
<path d="M491.755 27.8788V15.0667H494.381V27.3212C494.381 29.3368 494.83 30.9418 495.816 32.0452C496.812 33.1594 498.276 33.6758 500.112 33.6758C501.402 33.6758 502.547 33.2947 503.535 32.6112C504.516 31.9326 505.34 30.9571 505.865 29.8328C506.381 28.7286 506.679 27.5416 506.679 26.2758V15.0667H509.306V35.2545H506.889V32.6182V32.1182H506.389H506.249H505.957L505.813 32.3729C505.239 33.3928 504.338 34.2382 503.147 34.8992L503.138 34.9042L503.129 34.9096C501.962 35.6222 500.662 35.9505 499.282 35.9515C496.723 35.883 494.855 35.1462 493.652 33.8202C492.426 32.3993 491.755 30.4361 491.755 27.8788Z" fill="#656C73" stroke="#3F3F3F"/>
<path d="M527.549 15.3479L527.557 15.353L527.566 15.3577C528.821 16.0176 529.72 16.8608 530.292 17.8786L530.436 18.1333H530.728H530.868H531.392L531.367 17.6095L531.228 14.6942V5.58788H533.855V35.1849H531.437V32.5485V32.0485H530.937H530.798H530.506L530.362 32.3032C529.795 33.3109 528.833 34.1595 527.622 34.9013C526.368 35.5583 524.99 35.95 523.415 35.9515C521.616 35.8836 520.033 35.4187 518.583 34.4963C517.121 33.5665 515.927 32.3075 515.062 30.645C514.192 28.9732 513.723 27.1705 513.723 25.0909C513.723 23.0113 514.192 21.2086 515.062 19.5369C515.927 17.8743 517.121 16.6153 518.583 15.6855C520.037 14.7606 521.618 14.3 523.336 14.3C524.936 14.3 526.311 14.632 527.549 15.3479ZM530.403 29.5765L530.403 29.5765L530.408 29.5661C531.071 28.2413 531.437 26.7706 531.437 25.0909C531.437 23.4175 531.074 21.8716 530.403 20.6053C529.744 19.3611 528.848 18.3049 527.632 17.6191C526.513 16.9497 525.241 16.5758 523.894 16.5758C522.544 16.5758 521.27 16.951 520.149 17.6227C519.018 18.3009 518.051 19.3472 517.384 20.6053C516.714 21.87 516.35 23.4155 516.35 25.0212C516.35 26.6987 516.715 28.174 517.384 29.4371C518.043 30.6814 518.939 31.7375 520.155 32.4233C521.267 33.0882 522.529 33.4616 523.866 33.4666C525.242 33.6124 526.527 33.2255 527.638 32.5591C528.769 31.8809 529.736 30.8346 530.403 29.5765Z" fill="#656C73" stroke="#3F3F3F"/>
<path d="M539.544 19.6692L539.544 19.6692L539.548 19.6619C540.34 18.0133 541.529 16.7536 543.001 15.7494C544.513 14.7651 546.228 14.3 548.163 14.3C550.1 14.3 551.827 14.7658 553.353 15.6269C554.794 16.4792 555.915 17.7268 556.713 19.3207C557.509 20.9129 557.915 22.7854 557.915 24.8818C557.915 25.0145 557.915 25.1249 557.913 25.2182H541.468H540.946L540.969 25.7399C541.041 27.3993 541.404 28.821 542.236 30.035C542.973 31.211 543.943 32.1137 545.081 32.6475C546.196 33.2395 547.388 33.5364 548.652 33.5364C551.364 33.5364 553.525 32.2336 555.055 29.7813L557.373 30.8894C556.534 32.3291 555.422 33.4512 554.028 34.3599C552.523 35.3405 550.671 35.8121 548.512 35.8121H548.504L548.495 35.8124C546.565 35.8789 544.779 35.4137 543.262 34.491C541.736 33.5627 540.545 32.3063 539.68 30.645C538.81 28.9732 538.342 27.1705 538.342 25.0909C538.342 23.1367 538.747 21.2635 539.544 19.6692ZM554.649 23.2212H555.193L555.148 22.6797C555.074 21.7934 554.851 20.823 554.399 19.9187C553.937 18.9952 553.173 18.1589 552.119 17.5541C551.04 16.8648 549.755 16.5758 548.233 16.5758C546.523 16.5758 545.002 17.0986 543.782 18.2391C542.503 19.3688 541.762 20.7967 541.396 22.6231L541.277 23.2212H541.887H554.649Z" fill="#656C73" stroke="#3F3F3F"/>
<path d="M580.232 22.303V35.2545H577.606V22.8606C577.606 20.8736 577.136 19.2991 576.118 18.222C575.095 17.1396 573.599 16.6455 571.736 16.6455C570.512 16.6455 569.368 17.0284 568.383 17.71C567.389 18.3975 566.64 19.3799 566.122 20.4885C565.606 21.5926 565.308 22.7796 565.308 24.0455V35.2545H562.681V14.997H565.168V17.6333V18.1333H565.668H565.808H566.1L566.244 17.8786C566.822 16.8503 567.657 16.0114 568.9 15.3577L568.914 15.3502L568.928 15.3419C570.096 14.6282 571.399 14.3 572.782 14.3C575.265 14.3 577.129 15.035 578.332 16.4269C579.562 17.8505 580.232 19.747 580.232 22.303Z" fill="#656C73" stroke="#3F3F3F"/>
<path d="M589.717 8.65454V14.497V14.997H590.217H594.948V17.2727H590.217H589.717V17.7727V29.3424C589.717 30.6177 589.923 31.6782 590.529 32.3789C591.129 33.1424 592.051 33.5364 593.146 33.5364C593.801 33.5364 594.404 33.4357 594.948 33.2263V35.5189C594.607 35.6194 594.327 35.7015 594.041 35.7492C593.642 35.8157 593.112 35.8818 592.449 35.8818C591.746 35.8818 591.039 35.7548 590.326 35.4964C589.7 35.2451 589.126 34.8663 588.606 34.4134C588.102 33.9064 587.729 33.3437 587.479 32.6563C587.223 31.954 587.091 31.177 587.091 30.1788V17.7727V17.2727H586.591H583.325V14.997H586.591H587.091V14.497V8.65454H589.717Z" fill="#656C73" stroke="#3F3F3F"/>
<path d="M629.062 6.09899L629.062 6.09905L629.069 6.10239C630.744 6.8461 632.245 7.93251 633.469 9.30828L631.611 11.1143C630.528 9.87351 629.271 8.9233 627.943 8.3258C626.479 7.6674 624.804 7.30605 622.926 7.30605C620.691 7.30605 618.511 7.81015 616.612 8.90422C614.648 9.9952 613.122 11.5232 611.965 13.4753C610.797 15.4451 610.221 17.7661 610.221 20.2818C610.221 22.8686 610.797 25.1196 611.965 27.0883C613.123 29.0416 614.65 30.5703 616.616 31.6614C618.578 32.7509 620.685 33.2576 622.926 33.2576C626.678 33.2576 629.835 31.7884 632.436 28.8902L634.309 30.7618C633.016 32.213 631.431 33.378 629.549 34.2559C627.529 35.1982 625.3 35.6727 622.856 35.6727H622.837L622.819 35.6741C620.139 35.875 617.517 35.2066 615.153 33.8567C612.795 32.5101 610.974 30.6253 609.621 28.2579C608.272 25.8991 607.594 23.2674 607.594 20.3515C607.594 17.4399 608.27 14.8759 609.622 12.4425C610.976 10.0764 612.796 8.19243 615.153 6.84631L614.912 6.42385L615.153 6.84631C617.517 5.49682 620.081 4.82121 622.926 4.82121C625.164 4.82121 627.183 5.22731 629.062 6.09899Z" fill="#656C73" stroke="#3F3F3F"/>
<path d="M639.117 35.1849V5.58788H641.744V35.1849H639.117Z" fill="#656C73" stroke="#3F3F3F"/>
<path d="M647.486 27.8788V15.0667H650.113V27.3212C650.113 29.3368 650.562 30.9418 651.548 32.0452C652.543 33.1594 654.007 33.6758 655.843 33.6758C657.133 33.6758 658.278 33.2947 659.266 32.6112C660.247 31.9326 661.072 30.9571 661.597 29.8328C662.112 28.7286 662.411 27.5416 662.411 26.2758V15.0667H665.037V35.2545H662.62V32.6182V32.1182H662.12H661.981H661.688L661.545 32.3729C660.971 33.3928 660.069 34.2382 658.878 34.8992L658.869 34.9042L658.861 34.9096C657.694 35.6222 656.393 35.9505 655.013 35.9515C652.466 35.8833 650.658 35.1521 649.379 33.8153C648.156 32.3949 647.486 30.4332 647.486 27.8788Z" fill="#656C73" stroke="#3F3F3F"/>
<path d="M674.481 32.3032L674.338 32.0485H674.046H673.906H673.406V32.5485V35.1849H670.919V5.58788H673.546V14.6942L673.407 17.6095L673.382 18.1333H673.906H674.046H674.323L674.47 17.8985C675.118 16.8615 676.029 16.0121 677.218 15.3523C678.397 14.6976 679.847 14.3 681.438 14.3C683.156 14.3 684.737 14.7606 686.191 15.6855C687.653 16.6153 688.847 17.8743 689.712 19.5369C690.582 21.2086 691.051 23.0113 691.051 25.0909C691.051 27.1705 690.582 28.9732 689.712 30.645C688.847 32.3075 687.653 33.5665 686.191 34.4963C684.737 35.4212 683.156 35.8818 681.438 35.8818C679.838 35.8818 678.454 35.5496 677.208 34.8938C675.965 34.2403 675.06 33.3319 674.481 32.3032ZM684.682 32.5662L684.682 32.5663L684.694 32.5591C685.825 31.8809 686.793 30.8346 687.459 29.5765C688.129 28.3118 688.494 26.7664 688.494 25.1606C688.494 23.4832 688.128 22.0078 687.459 20.7447C686.8 19.5005 685.905 18.4443 684.688 17.7585C683.57 17.0891 682.298 16.7152 680.95 16.7152C679.6 16.7152 678.326 17.0904 677.206 17.7621C676.085 18.434 675.111 19.4073 674.438 20.7499C673.769 22.0151 673.406 23.5591 673.406 25.2303C673.406 26.91 673.773 28.3807 674.435 29.7055C675.102 31.0377 676.003 32.0211 677.212 32.7021C678.331 33.3715 679.602 33.7455 680.95 33.7455H680.978L681.005 33.7424C682.325 33.5959 683.506 33.2275 684.682 32.5662Z" fill="#656C73" stroke="#3F3F3F"/>
<path d="M700.105 25.5105L700.105 25.5105L700.096 25.5084C698.58 25.179 697.327 24.5226 696.198 23.5945C695.202 22.7205 694.701 21.608 694.701 20.1424C694.701 18.9112 695.023 17.9182 695.698 17.1201L695.704 17.1131L695.71 17.106C696.416 16.2082 697.315 15.5615 698.497 15.1024C699.681 14.6421 701.012 14.4394 702.43 14.4394C704.165 14.4394 705.752 14.8389 707.134 15.6281C708.366 16.3316 709.321 17.2868 709.925 18.4923L707.615 19.4958C707.121 18.5902 706.473 17.8766 705.52 17.3985C704.525 16.8649 703.395 16.6455 702.221 16.6455C701.014 16.6455 699.947 16.9491 698.96 17.5559C697.939 18.1839 697.397 19.0268 697.397 20.0727C697.397 20.5174 697.478 20.9307 697.671 21.3037C697.862 21.6744 698.148 21.9765 698.515 22.2235C699.149 22.6948 700.193 23.13 701.46 23.4818L701.467 23.4839L701.475 23.4857L704.608 24.2511C706.661 24.7988 708.158 25.5334 709.109 26.5481L709.115 26.554L709.121 26.5597C710.063 27.5019 710.508 28.6943 710.508 30.0394C710.508 31.1948 710.189 32.2072 709.556 33.0941C708.915 33.9897 707.943 34.7722 706.761 35.2976C705.587 35.8188 704.202 36.0884 702.592 36.0909C700.359 35.8855 698.576 35.3468 697.071 34.3015C695.752 33.342 694.765 32.1158 694.151 30.7215L696.46 29.7179C697.045 30.9082 697.865 31.8731 698.875 32.5464C700.001 33.2963 701.213 33.6758 702.57 33.6758C704.031 33.6758 705.256 33.3832 706.272 32.6809C707.27 31.9898 707.812 31.1555 707.812 30.1091C707.812 29.1207 707.394 28.2784 706.645 27.6952C705.864 27.0718 704.667 26.5626 703.03 26.2064L700.105 25.5105Z" fill="#656C73" stroke="#3F3F3F"/>
<path d="M20.5038 20.8394L34.2427 12.8939C37.4508 11.0121 38.5666 6.9 36.6836 3.69394C34.8006 0.487874 30.6859 -0.627277 27.4778 1.25454L3.76594 14.9152L20.5038 20.8394Z" fill="#EA4335"/>
<path d="M30.8254 41.1909C33.1269 41.1909 35.4283 40.0061 36.6836 37.8454C38.5666 34.6394 37.4508 30.5273 34.2427 28.6454L10.5308 14.9848C7.32273 13.103 3.20799 14.2182 1.32499 17.4242C-0.558015 20.6303 0.55784 24.7424 3.76592 26.6242L27.4778 40.2848C28.524 40.9121 29.7096 41.1909 30.8254 41.1909Z" fill="#4285F4"/>
<path d="M54.398 41.1909C55.5138 41.1909 56.6994 40.9121 57.7455 40.2848L81.4574 26.6242L64.9288 20.5606L50.9807 28.5758C47.7726 30.4576 46.6567 34.5697 48.5397 37.7758C49.7951 40.0061 52.0965 41.1909 54.398 41.1909Z" fill="#FBBC04"/>
<path d="M78.1098 27.5303C80.4113 27.5303 82.7127 26.3455 83.968 24.1849C85.8511 20.9788 84.7352 16.8667 81.5271 14.9849L57.8153 1.32424C54.6073 -0.557581 50.4926 0.557592 48.6096 3.76366C46.7265 6.9697 47.8424 11.0818 51.0505 12.9636L74.7622 26.6242C75.8084 27.2515 76.994 27.5303 78.1098 27.5303Z" fill="#34A853"/>
</g>
<defs>
<clipPath id="clip0_18_564">
<rect width="711.357" height="46" fill="white"/>
</clipPath>
</defs>
</svg>
