<svg width="31" height="29" viewBox="0 0 31 29" fill="none" xmlns="http://www.w3.org/2000/svg">
<path d="M15.7836 24.3243L15.9214 24.1832C19.3944 20.9624 22.3108 18.2558 24.355 15.8093C26.397 13.3655 27.642 11.0979 27.642 8.75C27.642 5.48521 25.2326 3 22.0162 3C19.6787 3 17.4049 4.46877 16.4556 6.54H14.3962C13.4469 4.46877 11.1731 3 8.83558 3C5.6192 3 3.20979 5.48521 3.20979 8.75C3.20979 11.0978 4.45469 13.3654 6.49479 15.8092C8.53548 18.2537 11.4452 20.9579 14.9072 24.1752L14.9241 24.1909L14.9244 24.1913L15.0852 24.3409L15.4425 24.6737L15.7836 24.3243ZM15.0427 3.94114L15.4259 4.39848L15.8091 3.94114C17.3155 2.14344 19.6236 1 22.0162 1C26.2401 1 29.571 4.38039 29.571 8.75C29.571 11.417 28.4012 13.881 26.2478 16.5794C24.0885 19.2851 20.9899 22.1672 17.2092 25.6786L17.2085 25.6793L15.4259 27.3414L13.6433 25.6793L13.6426 25.6786C9.86185 22.1672 6.76326 19.2851 4.60402 16.5794C2.45062 13.881 1.28076 11.417 1.28076 8.75C1.28076 4.38039 4.61165 1 8.83558 1C11.2282 1 13.5362 2.14344 15.0427 3.94114Z" fill="#FF0000" stroke="#FF0000"/>
</svg>
