<svg width="26" height="25" viewBox="0 0 26 25" fill="none" xmlns="http://www.w3.org/2000/svg">
<path d="M24.8796 24.9485L14.9417 15.4137C14.1482 16.0624 13.2357 16.5643 12.2041 16.9196C11.1726 17.2749 10.1357 17.4525 9.09357 17.4525C6.55224 17.4525 4.40131 16.6085 2.64079 14.9204C0.880262 13.2313 0 11.1681 0 8.73083C0 6.29359 0.879204 4.22939 2.63761 2.53825C4.39708 0.846082 6.54695 0 9.08722 0C11.6286 0 13.7805 0.844559 15.5432 2.53368C17.3058 4.2228 18.1871 6.28699 18.1871 8.72627C18.1871 9.784 17.9919 10.8077 17.6015 11.7974C17.2101 12.7872 16.6969 13.6337 16.0621 14.3372L26 23.8705L24.8796 24.9485ZM9.09357 15.9284C11.199 15.9284 12.977 15.233 14.4275 13.8423C15.877 12.4517 16.6017 10.7458 16.6017 8.72474C16.6017 6.7047 15.877 4.99934 14.4275 3.60866C12.978 2.21798 11.2006 1.52264 9.09516 1.52264C6.98972 1.52264 5.21174 2.21798 3.76122 3.60866C2.31175 4.99934 1.58701 6.7047 1.58701 8.72474C1.58701 10.7448 2.31175 12.4501 3.76122 13.8408C5.21069 15.2315 6.98814 15.9284 9.09357 15.9284Z" fill="#FFFEFE"/>
</svg>
